<svg width="32" height="32" viewBox="0 0 32 32" fill="none" xmlns="http://www.w3.org/2000/svg">
<path d="M15.9999 30.7334C7.8666 30.7334 1.2666 24.1334 1.2666 16.0001C1.2666 7.86672 7.8666 1.26672 15.9999 1.26672C24.1333 1.26672 30.7333 7.86672 30.7333 16.0001C30.6666 24.1334 24.1333 30.6667 15.9999 30.7334ZM15.9999 3.26672C8.99994 3.26672 3.2666 9.00006 3.2666 16.0001C3.2666 23.0001 8.99994 28.7334 15.9999 28.7334C22.9999 28.7334 28.7333 23.0001 28.7333 16.0001C28.6666 9.00006 22.9999 3.33339 15.9999 3.26672Z" fill="#4C4C4C"/>
<path d="M15.9999 23.1334C12.0666 23 8.93327 19.7334 9.0666 15.8C9.19994 12 12.1999 9.00003 15.9999 8.8667C17.8666 8.8667 19.7333 9.60003 21.0666 10.9334C21.4666 11.3334 21.4666 11.9334 21.0666 12.3334C20.6666 12.7334 20.0666 12.7334 19.6666 12.3334C17.6666 10.3334 14.3999 10.3334 12.3999 12.3334C10.3999 14.3334 10.3999 17.6 12.3999 19.6C14.3999 21.6 17.6666 21.6 19.6666 19.6C20.0666 19.2 20.6666 19.2 21.0666 19.6C21.4666 20 21.4666 20.6 21.0666 21C19.7333 22.4 17.8666 23.1334 15.9999 23.1334Z" fill="#4C4C4C"/>
</svg>
